<svg xmlns="http://www.w3.org/2000/svg" version="1.1" xmlns:xlink="http://www.w3.org/1999/xlink" width="512" height="512" x="0" y="0" viewBox="0 0 64 64" style="enable-background:new 0 0 512 512" xml:space="preserve" class=""><g><path d="M62.386 19.76a.352.352 0 0 0-.439-.03c-2.107 1.467-4.402 2.713-6.621 3.918-2.403 1.304-4.887 2.653-7.168 4.296-1.51 1.087-2.913 2.388-4.27 3.645-1.12 1.038-2.273 2.089-3.487 3.037a92.955 92.955 0 0 0 6.139-8.47c1.586-.99 3.171-2.782 4.093-4.1 3.925-5.612 5.853-13.465 4.912-20.005a.353.353 0 0 0-.338-.302.362.362 0 0 0-.355.282c-.844 4.145-2.553 6.699-4.534 9.656l-.545.817c-1.905 2.868-3.018 5.781-3.72 9.742l-.12.646c-.16.841-.304 1.649-.305 2.54a95.01 95.01 0 0 1-4.397 6.077C44.7 24.351 44.9 14.98 43.406 8.53c-.038-.165-.18-.292-.357-.273a.352.352 0 0 0-.334.302c-.313 2.2-.921 4.018-1.51 5.776-.385 1.154-.75 2.243-1.035 3.427-1.273 5.282-1.77 11.069-1.436 16.733 0 .014.012.024.014.038-.115.133-.229.276-.344.408-2.084 2.38-4.288 4.748-6.69 6.86 1.276-1.877 2.417-4.458 1.835-7.263-.239-1.15-.45-2.126-.636-2.984-.656-3.024-.985-4.542-1.094-7.141a.35.35 0 0 0-.636-.193c-2.911 3.994-2.197 9.147-1.724 12.556.157 1.13.293 2.106.27 2.798-.053 1.618-.028 3.405-1.13 4.715-2.045 1.468-4.235 2.714-6.624 3.61-5.938 2.039-10.53 4.275-14.04 6.832a28.704 28.704 0 0 0-3.91 3.412 31.079 31.079 0 0 0-1.48 1.668c-.227.274-.447.546-.66.817l-.314.403a.358.358 0 0 0 .064.494l.85.655a.355.355 0 0 0 .492-.064l.306-.39c.204-.26.413-.521.63-.783a30.06 30.06 0 0 1 1.395-1.577 27.406 27.406 0 0 1 3.663-3.219c3.35-2.464 7.78-4.657 13.564-6.713a28.385 28.385 0 0 0 4.696-2.358c1.353 1.249 2.611 1.755 3.978 1.755 1.116 0 2.305-.333 3.68-.86 1.382-.533 2.702-1.216 3.979-1.876 2.62-1.355 5.094-2.634 8.075-2.728a.351.351 0 0 0 .193-.638c-.905-.64-3.308-1.37-5.021-1.327-3.25.061-6.356 1.446-9.358 2.785a68.948 68.948 0 0 1-3.333 1.407c3.48-2.551 6.505-5.718 9.295-8.95a6.93 6.93 0 0 0 1.497.162c2.911 0 6.031-1.543 7.388-2.3 6.347-3.547 11.622-8.63 14.85-14.312a.353.353 0 0 0-.068-.434zm-15.762 3.263.122-.655c.693-3.91 1.74-6.656 3.614-9.475l.543-.815c1.69-2.522 3.186-4.757 4.14-7.922.315 5.921-1.553 12.586-4.987 17.497-.721 1.032-1.78 2.244-2.864 3.156 2.611-3.948 4.444-8.663 6.071-12.879l.098-.251a.35.35 0 1 0-.656-.254l-.097.252c-1.742 4.51-3.551 9.154-6.23 13.076h-.002c.05-.568.135-1.128.248-1.73zM31.18 25.518c.155 2.073.494 3.638 1.046 6.184.186.857.397 1.83.635 2.978.56 2.697-.678 5.239-1.959 7.03.734-2.158.998-4.786.727-6.478-.434-2.709-.504-5.052-.505-5.075a.352.352 0 0 0-.352-.342h-.01a.351.351 0 0 0-.341.362c0 .024.073 2.41.513 5.167.233 1.455.029 3.669-.528 5.585.008-.23.012-.457.015-.679.002-.22.005-.438.012-.653.025-.753-.114-1.756-.276-2.918-.448-3.227-1.048-7.554 1.023-11.161zm1.864 19.31c2.939-1.31 5.977-2.665 9.085-2.725 1.158.002 2.522.304 3.509.673-2.596.368-4.876 1.547-7.092 2.693-1.26.651-2.563 1.325-3.91 1.844-2.556.983-4.263 1.22-6.137-.117.476.123.947.186 1.414.186 1.818 0 3.566-.831 5.273-1.643 1.627-.773 3.163-1.503 4.742-1.565a.351.351 0 0 0 .338-.365c-.007-.193-.134-.347-.366-.338-1.723.067-3.397.863-5.016 1.633-2.056.978-4.012 1.902-6.038 1.452 1.417-.496 2.825-1.116 4.198-1.728zm-10.765 3.95C16.449 50.85 11.96 53.075 8.555 55.58a28.077 28.077 0 0 0-3.757 3.3 31.376 31.376 0 0 0-1.427 1.614c-.22.267-.434.532-.642.797l-.092.118-.293-.226.095-.12c.209-.267.425-.535.647-.803.488-.59.961-1.123 1.447-1.63a27.955 27.955 0 0 1 3.816-3.33c3.446-2.511 7.966-4.71 13.82-6.724l.03-.01c2.471-.923 4.729-2.22 6.838-3.738.011-.007.026-.004.036-.013l.079-.068c2.552-1.852 4.881-4.03 7.052-6.33-3.938 4.292-8.398 8.223-13.926 10.363zM39.372 32.88c-.16-5.088.343-10.225 1.481-14.953.28-1.154.64-2.23 1.02-3.37.43-1.285.87-2.602 1.204-4.082 1.055 6.228.603 14.464-2.537 20.842.639-2.566.956-5.16 1.26-7.691.21-1.735.425-3.529.743-5.3a.352.352 0 0 0-.284-.408.357.357 0 0 0-.408.284c-.321 1.79-.538 3.595-.748 5.34-.388 3.223-.76 6.288-1.731 9.338zm7.888 1.01c-1.021.572-4.179 2.203-7.026 2.21 3.784-1.029 7.147-3.63 10.404-6.169 1.076-.838 2.187-1.705 3.298-2.502a.35.35 0 1 0-.41-.571c-1.122.805-2.24 1.676-3.32 2.519-3.1 2.416-6.058 4.704-9.357 5.807 1.232-.963 2.387-2.032 3.517-3.078 1.342-1.243 2.73-2.528 4.202-3.59 2.246-1.617 4.71-2.955 7.093-4.249 1.786-.97 3.622-1.966 5.378-3.087-3.204 5.033-8.043 9.507-13.779 12.71z" fill="#000000" opacity="1" data-original="#000000" class=""></path></g></svg>
